<svg width="20" height="16" viewBox="0 0 20 16" fill="none" xmlns="http://www.w3.org/2000/svg">
<path d="M0.400024 4.1C0.400024 3.22479 0.747702 2.38542 1.36657 1.76655C1.98544 1.14768 2.82481 0.800003 3.70002 0.800003H16.3C17.1752 0.800003 18.0146 1.14768 18.6335 1.76655C19.2523 2.38542 19.6 3.22479 19.6 4.1V11.9C19.6 12.7752 19.2523 13.6146 18.6335 14.2335C18.0146 14.8523 17.1752 15.2 16.3 15.2H3.70002C2.82481 15.2 1.98544 14.8523 1.36657 14.2335C0.747702 13.6146 0.400024 12.7752 0.400024 11.9V4.1ZM1.60002 8V11.9C1.60002 13.0592 2.54082 14 3.70002 14H6.40002V8.8484L4.42482 10.8248C4.31216 10.9375 4.15936 11.0008 4.00002 11.0008C3.84069 11.0008 3.68789 10.9375 3.57522 10.8248C3.46256 10.7121 3.39927 10.5593 3.39927 10.4C3.39927 10.2407 3.46256 10.0879 3.57522 9.9752L5.55162 8H1.60002ZM3.12162 6.8C2.85751 6.34247 2.75174 5.81057 2.82071 5.2868C2.88969 4.76303 3.12955 4.27665 3.50311 3.90309C3.87667 3.52953 4.36305 3.28966 4.88682 3.22069C5.41059 3.15172 5.94249 3.25749 6.40002 3.5216V2H3.70002C3.14307 2 2.60893 2.22125 2.2151 2.61508C1.82127 3.00891 1.60002 3.54305 1.60002 4.1V6.8H3.12162ZM5.20002 6.8H6.40002V5.6C6.40002 5.36267 6.32965 5.13066 6.19779 4.93332C6.06593 4.73598 5.87852 4.58217 5.65924 4.49135C5.43997 4.40052 5.19869 4.37676 4.96592 4.42306C4.73314 4.46936 4.51932 4.58365 4.3515 4.75147C4.18367 4.9193 4.06938 5.13312 4.02308 5.36589C3.97678 5.59867 4.00054 5.83995 4.09137 6.05922C4.18219 6.27849 4.336 6.46591 4.53334 6.59777C4.73068 6.72962 4.96269 6.8 5.20002 6.8ZM7.60002 5.6V6.8H8.80002C9.03736 6.8 9.26937 6.72962 9.46671 6.59777C9.66405 6.46591 9.81785 6.27849 9.90868 6.05922C9.99951 5.83995 10.0233 5.59867 9.97697 5.36589C9.93067 5.13312 9.81638 4.9193 9.64855 4.75147C9.48073 4.58365 9.26691 4.46936 9.03413 4.42306C8.80136 4.37676 8.56008 4.40052 8.3408 4.49135C8.12153 4.58217 7.93412 4.73598 7.80226 4.93332C7.6704 5.13066 7.60002 5.36267 7.60002 5.6ZM10.8784 6.8H18.4V4.1C18.4 3.54305 18.1788 3.00891 17.7849 2.61508C17.3911 2.22125 16.857 2 16.3 2H7.60002V3.5216C8.05756 3.25749 8.58945 3.15172 9.11323 3.22069C9.637 3.28966 10.1234 3.52953 10.4969 3.90309C10.8705 4.27665 11.1104 4.76303 11.1793 5.2868C11.2483 5.81057 11.1425 6.34247 10.8784 6.8ZM8.44842 8L10.4248 9.9752C10.5375 10.0879 10.6008 10.2407 10.6008 10.4C10.6008 10.5593 10.5375 10.7121 10.4248 10.8248C10.3122 10.9375 10.1594 11.0008 10 11.0008C9.84069 11.0008 9.68789 10.9375 9.57522 10.8248L7.60002 8.8484V14H16.3C16.857 14 17.3911 13.7788 17.7849 13.3849C18.1788 12.9911 18.4 12.457 18.4 11.9V8H8.44842Z" fill="#B62028"/>
</svg>
