<svg width="13" height="12" viewBox="0 0 13 12" fill="none" xmlns="http://www.w3.org/2000/svg">
<path d="M6.42986 11.3462C5.60339 11.3467 4.78791 11.157 4.04649 10.7918C3.30507 10.4267 2.65759 9.89585 2.15413 9.24043C1.65068 8.585 1.30476 7.82255 1.14312 7.01205C0.981477 6.20155 1.00846 5.36472 1.22197 4.56632C1.43548 3.76791 1.8298 3.02933 2.37443 2.4077C2.91906 1.78607 3.59939 1.29806 4.36279 0.981423C5.12619 0.664789 5.95221 0.528015 6.77693 0.581687C7.60165 0.635358 8.40296 0.878041 9.11889 1.29095C9.17192 1.32125 9.21075 1.37137 9.22682 1.4303C9.24289 1.48923 9.23489 1.55214 9.20459 1.60517C9.17428 1.6582 9.12415 1.69702 9.06522 1.71309C9.00629 1.72917 8.94339 1.72117 8.89036 1.69087C7.95073 1.14961 6.85878 0.933487 5.78382 1.07603C4.70886 1.21857 3.71096 1.7118 2.94487 2.47924C2.17878 3.24668 1.68731 4.24546 1.54666 5.32067C1.40602 6.39588 1.62406 7.48744 2.16698 8.42611C2.7099 9.36478 3.54736 10.0981 4.54949 10.5123C5.55162 10.9266 6.66243 10.9986 7.70965 10.7172C8.75688 10.4358 9.68202 9.81682 10.3416 8.95611C11.0012 8.09541 11.3583 7.04113 11.3577 5.95676C11.3578 5.73665 11.3433 5.51677 11.3143 5.29858C11.2637 4.91772 11.1683 4.54415 11.0302 4.18564C10.9385 3.94903 10.8287 3.71983 10.7018 3.50006C10.6807 3.46511 10.6694 3.42514 10.669 3.38431C10.6685 3.34349 10.6791 3.3033 10.6994 3.26791C10.7198 3.23253 10.7493 3.20326 10.7848 3.18313C10.8203 3.163 10.8606 3.15275 10.9014 3.15346C10.9421 3.15318 10.9821 3.16376 11.0173 3.18412C11.0525 3.20447 11.0817 3.23387 11.1018 3.26925C11.4519 3.87573 11.6797 4.54501 11.7721 5.23917C11.8741 6.00053 11.8123 6.7749 11.5907 7.5104C11.3691 8.24591 10.9929 8.92556 10.4872 9.50384C9.9816 10.0821 9.35822 10.5456 8.65886 10.8634C7.9595 11.1811 7.20031 11.3458 6.43214 11.3462H6.42986Z" fill="#00C689" stroke="#1FC689"/>
<path d="M5.74646 7.89818C5.71633 7.89825 5.68649 7.89237 5.65864 7.88087C5.6308 7.86936 5.60549 7.85246 5.5842 7.83114L4.21988 6.46682C4.19863 6.44557 4.18177 6.42033 4.17026 6.39256C4.15876 6.36479 4.15283 6.33502 4.15283 6.30495C4.15283 6.27489 4.15876 6.24512 4.17026 6.21735C4.18177 6.18957 4.19863 6.16433 4.21988 6.14307C4.24114 6.12181 4.26638 6.10495 4.29415 6.09345C4.32193 6.08194 4.3517 6.07603 4.38176 6.07603C4.41182 6.07603 4.44159 6.08194 4.46937 6.09345C4.49714 6.10495 4.52238 6.12181 4.54364 6.14307L5.66724 7.26591C5.67764 7.27632 5.68998 7.28458 5.70358 7.29022C5.71717 7.29585 5.73175 7.29876 5.74646 7.29876C5.76118 7.29876 5.77575 7.29585 5.78934 7.29022C5.80294 7.28458 5.81528 7.27632 5.82568 7.26591L8.31361 4.77799C8.33486 4.75674 8.3601 4.73988 8.38788 4.72837C8.41565 4.71687 8.44542 4.71094 8.47548 4.71094C8.50555 4.71094 8.53532 4.71687 8.56309 4.72837C8.59087 4.73988 8.6161 4.75674 8.63736 4.77799C8.65862 4.79925 8.67548 4.82448 8.68698 4.85226C8.69849 4.88003 8.70441 4.9098 8.70441 4.93986C8.70441 4.96993 8.69849 4.9997 8.68698 5.02747C8.67548 5.05525 8.65862 5.08049 8.63736 5.10175L5.90872 7.83039C5.88749 7.85184 5.86222 7.86887 5.83437 7.88051C5.80652 7.89215 5.77665 7.89815 5.74646 7.89818Z" fill="#00C689" stroke="#1FC689"/>
</svg>
