<svg width="19" height="18" viewBox="0 0 19 18" fill="none" xmlns="http://www.w3.org/2000/svg">
<path d="M13.4995 11.0014H12.7095L12.4295 10.7314C13.0544 10.0054 13.5112 9.15021 13.767 8.22705C14.0229 7.30389 14.0715 6.33559 13.9095 5.39144C13.4395 2.61144 11.1195 0.39144 8.31949 0.0514397C7.3351 -0.0730946 6.33527 0.0292113 5.39651 0.350529C4.45775 0.671846 3.60493 1.20366 2.90332 1.90527C2.20171 2.60688 1.66989 3.4597 1.34858 4.39846C1.02726 5.33723 0.924952 6.33706 1.04949 7.32144C1.38949 10.1214 3.60949 12.4414 6.38949 12.9114C7.33364 13.0735 8.30194 13.0248 9.2251 12.769C10.1483 12.5131 11.0035 12.0564 11.7295 11.4314L11.9995 11.7114V12.5014L16.2495 16.7514C16.6595 17.1614 17.3295 17.1614 17.7395 16.7514C18.1495 16.3414 18.1495 15.6714 17.7395 15.2614L13.4995 11.0014ZM7.49949 11.0014C5.00949 11.0014 2.99949 8.99144 2.99949 6.50144C2.99949 4.01144 5.00949 2.00144 7.49949 2.00144C9.98949 2.00144 11.9995 4.01144 11.9995 6.50144C11.9995 8.99144 9.98949 11.0014 7.49949 11.0014Z" fill="white"/>
</svg>
