<svg width="9" height="9" viewBox="0 0 9 9" fill="none" xmlns="http://www.w3.org/2000/svg">
<g clip-path="url(#clip0_175_3407)">
<path d="M7.91252 3.32813L4.76252 6.48751C4.72502 6.52501 4.6844 6.55163 4.64065 6.56738C4.5969 6.58313 4.55002 6.59088 4.50002 6.59063C4.45002 6.59063 4.40315 6.58288 4.3594 6.56738C4.31565 6.55188 4.27502 6.52526 4.23752 6.48751L1.07815 3.32813C0.990649 3.24063 0.946899 3.13126 0.946899 3.00001C0.946899 2.86876 0.993774 2.75626 1.08752 2.66251C1.18127 2.56876 1.29065 2.52188 1.41565 2.52188C1.54065 2.52188 1.65002 2.56876 1.74377 2.66251L4.50002 5.41876L7.25627 2.66251C7.34377 2.57501 7.45165 2.53126 7.5799 2.53126C7.70815 2.53126 7.81902 2.57813 7.91252 2.67188C8.00627 2.76563 8.05315 2.87501 8.05315 3.00001C8.05315 3.12501 8.00627 3.23438 7.91252 3.32813Z" fill="#B62028"/>
</g>
<defs>
<clipPath id="clip0_175_3407">
<rect width="9" height="9" fill="white" transform="translate(0 9) rotate(-90)"/>
</clipPath>
</defs>
</svg>
