<svg width="22" height="16" viewBox="0 0 22 16" fill="none" xmlns="http://www.w3.org/2000/svg">
<path d="M20.334 0H1.66732C1.3137 0 0.974557 0.140476 0.724509 0.390524C0.47446 0.640573 0.333984 0.979711 0.333984 1.33333V14.6667C0.333984 15.0203 0.47446 15.3594 0.724509 15.6095C0.974557 15.8595 1.3137 16 1.66732 16H20.334C20.6876 16 21.0267 15.8595 21.2768 15.6095C21.5268 15.3594 21.6673 15.0203 21.6673 14.6667V1.33333C21.6673 0.979711 21.5268 0.640573 21.2768 0.390524C21.0267 0.140476 20.6876 0 20.334 0ZM11.6673 10.6667H5.00065C4.82384 10.6667 4.65427 10.5964 4.52925 10.4714C4.40422 10.3464 4.33398 10.1768 4.33398 10C4.33398 9.82319 4.40422 9.65362 4.52925 9.5286C4.65427 9.40357 4.82384 9.33333 5.00065 9.33333H11.6673C11.8441 9.33333 12.0137 9.40357 12.1387 9.5286C12.2637 9.65362 12.334 9.82319 12.334 10C12.334 10.1768 12.2637 10.3464 12.1387 10.4714C12.0137 10.5964 11.8441 10.6667 11.6673 10.6667ZM17.0007 8H5.00065C4.82384 8 4.65427 7.92976 4.52925 7.80474C4.40422 7.67972 4.33398 7.51015 4.33398 7.33333C4.33398 7.15652 4.40422 6.98695 4.52925 6.86193C4.65427 6.7369 4.82384 6.66667 5.00065 6.66667H17.0007C17.1775 6.66667 17.347 6.7369 17.4721 6.86193C17.5971 6.98695 17.6673 7.15652 17.6673 7.33333C17.6673 7.51015 17.5971 7.67972 17.4721 7.80474C17.347 7.92976 17.1775 8 17.0007 8ZM17.0007 5.33333H5.00065C4.82384 5.33333 4.65427 5.2631 4.52925 5.13807C4.40422 5.01305 4.33398 4.84348 4.33398 4.66667C4.33398 4.48986 4.40422 4.32029 4.52925 4.19526C4.65427 4.07024 4.82384 4 5.00065 4H17.0007C17.1775 4 17.347 4.07024 17.4721 4.19526C17.5971 4.32029 17.6673 4.48986 17.6673 4.66667C17.6673 4.84348 17.5971 5.01305 17.4721 5.13807C17.347 5.2631 17.1775 5.33333 17.0007 5.33333Z" fill="#B62028"/>
</svg>
