<svg width="24" height="24" viewBox="0 0 24 24" fill="none" xmlns="http://www.w3.org/2000/svg">
<path d="M8.20833 6.58333V9.83333M15.7917 6.58333V9.83333M12 23.375C5.71775 23.375 0.625 18.2823 0.625 12C0.625 5.71775 5.71775 0.625 12 0.625C18.2823 0.625 23.375 5.71775 23.375 12C23.375 18.2823 18.2823 23.375 12 23.375ZM12.3976 13.0833H11.6013C9.37508 13.0833 7.1835 12.5243 5.22917 11.4583H4.95833V12C4.95833 13.8676 5.70022 15.6586 7.02079 16.9792C8.34136 18.2998 10.1324 19.0417 12 19.0417C13.8676 19.0417 15.6586 18.2998 16.9792 16.9792C18.2998 15.6586 19.0417 13.8676 19.0417 12V11.4583H18.7708C16.8158 12.5247 14.6245 13.0835 12.3976 13.0833Z" stroke="#B62028"/>
</svg>
