<svg width="20" height="20" viewBox="0 0 20 20" fill="none" xmlns="http://www.w3.org/2000/svg">
<path d="M11.875 20H8.125C7.875 20 7.65834 19.9167 7.475 19.75C7.29167 19.5833 7.18333 19.375 7.15 19.125L6.85 16.8C6.63334 16.7167 6.429 16.6167 6.237 16.5C6.045 16.3833 5.85767 16.2583 5.675 16.125L3.5 17.025C3.26667 17.1083 3.03334 17.1167 2.8 17.05C2.56667 16.9833 2.38333 16.8417 2.25 16.625L0.400002 13.4C0.266668 13.1833 0.225002 12.95 0.275002 12.7C0.325002 12.45 0.450002 12.25 0.650002 12.1L2.525 10.675C2.50834 10.5583 2.5 10.4457 2.5 10.337V9.663C2.5 9.55433 2.50834 9.44167 2.525 9.325L0.650002 7.9C0.450002 7.75 0.325002 7.55 0.275002 7.3C0.225002 7.05 0.266668 6.81667 0.400002 6.6L2.25 3.375C2.36667 3.14167 2.54567 2.99567 2.787 2.937C3.02834 2.87833 3.266 2.891 3.5 2.975L5.675 3.875C5.85834 3.74167 6.05 3.61667 6.25 3.5C6.45 3.38333 6.65 3.28333 6.85 3.2L7.15 0.875C7.18333 0.625 7.29167 0.416667 7.475 0.25C7.65834 0.0833333 7.875 0 8.125 0H11.875C12.125 0 12.3417 0.0833333 12.525 0.25C12.7083 0.416667 12.8167 0.625 12.85 0.875L13.15 3.2C13.3667 3.28333 13.571 3.38333 13.763 3.5C13.955 3.61667 14.1423 3.74167 14.325 3.875L16.5 2.975C16.7333 2.89167 16.9667 2.88333 17.2 2.95C17.4333 3.01667 17.6167 3.15833 17.75 3.375L19.6 6.6C19.7333 6.81667 19.775 7.05 19.725 7.3C19.675 7.55 19.55 7.75 19.35 7.9L17.475 9.325C17.4917 9.44167 17.5 9.55433 17.5 9.663V10.337C17.5 10.4457 17.4833 10.5583 17.45 10.675L19.325 12.1C19.525 12.25 19.65 12.45 19.7 12.7C19.75 12.95 19.7083 13.1833 19.575 13.4L17.725 16.6C17.5917 16.8167 17.404 16.9627 17.162 17.038C16.92 17.1133 16.6827 17.109 16.45 17.025L14.325 16.125C14.1417 16.2583 13.95 16.3833 13.75 16.5C13.55 16.6167 13.35 16.7167 13.15 16.8L12.85 19.125C12.8167 19.375 12.7083 19.5833 12.525 19.75C12.3417 19.9167 12.125 20 11.875 20ZM10.05 13.5C11.0167 13.5 11.8417 13.1583 12.525 12.475C13.2083 11.7917 13.55 10.9667 13.55 10C13.55 9.03333 13.2083 8.20833 12.525 7.525C11.8417 6.84167 11.0167 6.5 10.05 6.5C9.06667 6.5 8.23734 6.84167 7.562 7.525C6.88667 8.20833 6.54934 9.03333 6.55 10C6.55 10.9667 6.88733 11.7917 7.562 12.475C8.23667 13.1583 9.066 13.5 10.05 13.5ZM10.05 11.5C9.63334 11.5 9.279 11.354 8.987 11.062C8.695 10.77 8.54934 10.416 8.55 10C8.55 9.58333 8.696 9.229 8.988 8.937C9.28 8.645 9.634 8.49933 10.05 8.5C10.4667 8.5 10.821 8.646 11.113 8.938C11.405 9.23 11.5507 9.584 11.55 10C11.55 10.4167 11.404 10.771 11.112 11.063C10.82 11.355 10.466 11.5007 10.05 11.5ZM9 18H10.975L11.325 15.35C11.8417 15.2167 12.321 15.0207 12.763 14.762C13.205 14.5033 13.609 14.191 13.975 13.825L16.45 14.85L17.425 13.15L15.275 11.525C15.3583 11.2917 15.4167 11.046 15.45 10.788C15.4833 10.53 15.5 10.2673 15.5 10C15.5 9.73333 15.4833 9.471 15.45 9.213C15.4167 8.955 15.3583 8.709 15.275 8.475L17.425 6.85L16.45 5.15L13.975 6.2C13.6083 5.81667 13.2043 5.496 12.763 5.238C12.3217 4.98 11.8423 4.784 11.325 4.65L11 2H9.025L8.675 4.65C8.15834 4.78333 7.67933 4.97933 7.238 5.238C6.79667 5.49667 6.39233 5.809 6.025 6.175L3.55 5.15L2.575 6.85L4.725 8.45C4.64167 8.7 4.58333 8.95 4.55 9.2C4.51667 9.45 4.5 9.71667 4.5 10C4.5 10.2667 4.51667 10.525 4.55 10.775C4.58333 11.025 4.64167 11.275 4.725 11.525L2.575 13.15L3.55 14.85L6.025 13.8C6.39167 14.1833 6.796 14.5043 7.238 14.763C7.68 15.0217 8.159 15.2173 8.675 15.35L9 18Z" fill="#B62028"/>
</svg>
