<svg width="22" height="16" viewBox="0 0 22 16" fill="none" xmlns="http://www.w3.org/2000/svg">
<path d="M3.5 0.5H6.5V3.6275C6.09934 3.48546 5.66663 3.45982 5.252 3.55356C4.83737 3.64731 4.45777 3.85659 4.15718 4.15718C3.85659 4.45777 3.64731 4.83737 3.55356 5.252C3.45982 5.66663 3.48546 6.09934 3.6275 6.5H0.5V3.5C0.5 2.70435 0.816071 1.94129 1.37868 1.37868C1.94129 0.81607 2.70435 0.5 3.5 0.5ZM8 9.0605L9.719 10.781C9.85983 10.9218 10.0508 11.0009 10.25 11.0009C10.4492 11.0009 10.6402 10.9218 10.781 10.781C10.9218 10.6402 11.0009 10.4492 11.0009 10.25C11.0009 10.0508 10.9218 9.85983 10.781 9.719L9.0605 8H21.5V12.5C21.5 13.2956 21.1839 14.0587 20.6213 14.6213C20.0587 15.1839 19.2956 15.5 18.5 15.5H8V9.0605ZM5.4395 8L3.719 9.719C3.57817 9.85983 3.49905 10.0508 3.49905 10.25C3.49905 10.4492 3.57817 10.6402 3.719 10.781C3.85983 10.9218 4.05084 11.0009 4.25 11.0009C4.44916 11.0009 4.64017 10.9218 4.781 10.781L6.5 9.0605V15.5H3.5C2.70435 15.5 1.94129 15.1839 1.37868 14.6213C0.816071 14.0587 0.5 13.2956 0.5 12.5V8H5.4395ZM10.8725 6.5C11.0145 6.09934 11.0402 5.66663 10.9464 5.252C10.8527 4.83737 10.6434 4.45777 10.3428 4.15718C10.0422 3.85659 9.66263 3.64731 9.248 3.55356C8.83337 3.45982 8.40066 3.48546 8 3.6275V0.5H18.5C19.2956 0.5 20.0587 0.81607 20.6213 1.37868C21.1839 1.94129 21.5 2.70435 21.5 3.5V6.5H10.8725ZM8 5.75V6.5H8.75C8.89834 6.5 9.04334 6.45601 9.16668 6.3736C9.29002 6.29119 9.38614 6.17406 9.44291 6.03701C9.49968 5.89997 9.51453 5.74917 9.48559 5.60368C9.45665 5.4582 9.38522 5.32456 9.28033 5.21967C9.17544 5.11478 9.0418 5.04335 8.89632 5.01441C8.75083 4.98547 8.60003 5.00032 8.46299 5.05709C8.32594 5.11386 8.20881 5.20999 8.1264 5.33332C8.04399 5.45666 8 5.60166 8 5.75ZM6.5 5.75V6.5H5.75C5.60166 6.5 5.45666 6.45601 5.33332 6.3736C5.20999 6.29119 5.11386 6.17406 5.05709 6.03701C5.00032 5.89997 4.98547 5.74917 5.01441 5.60368C5.04335 5.4582 5.11478 5.32456 5.21967 5.21967C5.32456 5.11478 5.4582 5.04335 5.60368 5.01441C5.74917 4.98547 5.89997 5.00032 6.03701 5.05709C6.17406 5.11386 6.29119 5.20999 6.3736 5.33332C6.45601 5.45666 6.5 5.60166 6.5 5.75Z" fill="#B62028"/>
</svg>
