<svg width="23" height="24" viewBox="0 0 23 24" fill="none" xmlns="http://www.w3.org/2000/svg">
<path d="M15.5 12H5V10.5H15.5V12ZM5 13.5H15.5V14.1562C15.1797 14.4062 14.8984 14.6875 14.6562 15H5V13.5ZM5 16.5H13.8594C13.7031 16.9922 13.625 17.4922 13.625 18H5V16.5ZM2 22.5H12.3125C12.1875 22.9766 12.125 23.4766 12.125 24H0.5V0H13.5664L20 6.43359V13.3594C19.5078 13.2031 19.0078 13.125 18.5 13.125V7.5H12.5V1.5H2V22.5ZM14 6H17.4336L14 2.56641V6ZM20.6562 20.0742C21.0156 20.2695 21.3398 20.5078 21.6289 20.7891C21.918 21.0703 22.1641 21.3789 22.3672 21.7148C22.5703 22.0508 22.7266 22.4141 22.8359 22.8047C22.9453 23.1953 23 23.5938 23 24H21.5C21.5 23.5859 21.4219 23.1992 21.2656 22.8398C21.1094 22.4805 20.8945 22.1602 20.6211 21.8789C20.3477 21.5977 20.0312 21.3828 19.6719 21.2344C19.3125 21.0859 18.9219 21.0078 18.5 21C18.0859 21 17.6992 21.0781 17.3398 21.2344C16.9805 21.3906 16.6602 21.6055 16.3789 21.8789C16.0977 22.1523 15.8828 22.4688 15.7344 22.8281C15.5859 23.1875 15.5078 23.5781 15.5 24H14C14 23.5938 14.0547 23.1992 14.1641 22.8164C14.2734 22.4336 14.4297 22.0703 14.6328 21.7266C14.8359 21.3828 15.082 21.0703 15.3711 20.7891C15.6602 20.5078 15.9844 20.2695 16.3438 20.0742C16.0781 19.8008 15.8711 19.4844 15.7227 19.125C15.5742 18.7656 15.5 18.3906 15.5 18C15.5 17.5859 15.5781 17.1992 15.7344 16.8398C15.8906 16.4805 16.1055 16.1602 16.3789 15.8789C16.6523 15.5977 16.9688 15.3828 17.3281 15.2344C17.6875 15.0859 18.0781 15.0078 18.5 15C18.9141 15 19.3008 15.0781 19.6602 15.2344C20.0195 15.3906 20.3398 15.6055 20.6211 15.8789C20.9023 16.1523 21.1172 16.4688 21.2656 16.8281C21.4141 17.1875 21.4922 17.5781 21.5 18C21.5 18.3906 21.4258 18.7656 21.2773 19.125C21.1289 19.4844 20.9219 19.8008 20.6562 20.0742ZM18.5 19.5C18.7109 19.5 18.9062 19.4609 19.0859 19.3828C19.2656 19.3047 19.4219 19.1992 19.5547 19.0664C19.6875 18.9336 19.7969 18.7734 19.8828 18.5859C19.9688 18.3984 20.0078 18.2031 20 18C20 17.7891 19.9609 17.5938 19.8828 17.4141C19.8047 17.2344 19.6992 17.0781 19.5664 16.9453C19.4336 16.8125 19.2734 16.7031 19.0859 16.6172C18.8984 16.5312 18.7031 16.4922 18.5 16.5C18.2891 16.5 18.0938 16.5391 17.9141 16.6172C17.7344 16.6953 17.5781 16.8008 17.4453 16.9336C17.3125 17.0664 17.2031 17.2266 17.1172 17.4141C17.0312 17.6016 16.9922 17.7969 17 18C17 18.2109 17.0391 18.4062 17.1172 18.5859C17.1953 18.7656 17.3008 18.9219 17.4336 19.0547C17.5664 19.1875 17.7266 19.2969 17.9141 19.3828C18.1016 19.4688 18.2969 19.5078 18.5 19.5Z" fill="#B62028"/>
</svg>
