<svg width="24" height="22" viewBox="0 0 24 22" fill="none" xmlns="http://www.w3.org/2000/svg">
<path d="M12 0.5C5.36812 0.5 1.24586e-10 5.867 1.24586e-10 12.5V14.75C-3.58959e-06 15.0286 0.0775659 15.3016 0.224016 15.5386C0.370467 15.7756 0.580012 15.9671 0.829172 16.0917L1.50337 16.4287C1.59764 19.2455 3.91036 21.5 6.75 21.5H7.875C8.49633 21.5 9 20.9963 9 20.375V12.125C9 11.5037 8.49633 11 7.875 11H6.75C5.28084 11 3.95292 11.6037 3 12.5763V12.5C3 7.53739 7.03739 3.5 12 3.5C16.9626 3.5 21 7.53739 21 12.5V12.5763C20.0471 11.6037 18.7192 11 17.25 11H16.125C15.5037 11 15 11.5037 15 12.125V20.375C15 20.9963 15.5037 21.5 16.125 21.5H17.25C20.0896 21.5 22.4024 19.2454 22.4966 16.4287L23.1708 16.0917C23.4199 15.9671 23.6295 15.7756 23.776 15.5386C23.9224 15.3016 24 15.0286 24 14.75V12.5C24 5.86817 18.633 0.5 12 0.5Z" fill="#B62028"/>
</svg>
