<svg width="9" height="5" viewBox="0 0 9 5" fill="none" xmlns="http://www.w3.org/2000/svg">
<path d="M7.91249 1.32734L4.76249 4.48671C4.72499 4.52421 4.68437 4.55084 4.64062 4.56659C4.59687 4.58234 4.54999 4.59009 4.49999 4.58984C4.44999 4.58984 4.40312 4.58209 4.35937 4.56659C4.31562 4.55109 4.27499 4.52446 4.23749 4.48671L1.07812 1.32734C0.990619 1.23984 0.946869 1.13046 0.946869 0.999213C0.946869 0.867963 0.993744 0.755463 1.08749 0.661713C1.18124 0.567963 1.29062 0.521088 1.41562 0.521088C1.54062 0.521088 1.64999 0.567963 1.74374 0.661713L4.49999 3.41796L7.25624 0.661713C7.34374 0.574213 7.45162 0.530463 7.57987 0.530463C7.70812 0.530463 7.81899 0.577338 7.91249 0.671088C8.00624 0.764838 8.05312 0.874213 8.05312 0.999213C8.05312 1.12421 8.00624 1.23359 7.91249 1.32734Z" fill="#B62028"/>
</svg>
