<svg width="24" height="24" viewBox="0 0 24 24" fill="none" xmlns="http://www.w3.org/2000/svg">
<path d="M12 0.046875C9.6359 0.046875 7.32489 0.747913 5.3592 2.06134C3.39352 3.37477 1.86146 5.24159 0.956758 7.42574C0.0520539 9.60989 -0.184658 12.0133 0.276556 14.3319C0.73777 16.6506 1.87619 18.7805 3.54787 20.4521C5.21954 22.1238 7.34939 23.2622 9.66807 23.7234C11.9867 24.1847 14.3901 23.948 16.5743 23.0432C18.7584 22.1385 20.6252 20.6065 21.9387 18.6408C23.2521 16.6751 23.9531 14.3641 23.9531 12C23.9494 8.83098 22.6889 5.79281 20.448 3.55198C18.2072 1.31114 15.169 0.0505967 12 0.046875ZM12 22.5469C9.91403 22.5469 7.8749 21.9283 6.14048 20.7694C4.40605 19.6105 3.05423 17.9633 2.25596 16.0361C1.4577 14.1089 1.24883 11.9883 1.65579 9.94241C2.06274 7.89651 3.06723 6.01724 4.54224 4.54223C6.01725 3.06723 7.89652 2.06273 9.94241 1.65578C11.9883 1.24883 14.1089 1.45769 16.0361 2.25596C17.9633 3.05423 19.6105 4.40605 20.7694 6.14047C21.9283 7.8749 22.5469 9.91403 22.5469 12C22.5438 14.7963 21.4316 17.4771 19.4543 19.4543C17.4771 21.4316 14.7963 22.5438 12 22.5469ZM17.3906 15.75C17.3906 15.9365 17.3166 16.1153 17.1847 16.2472C17.0528 16.379 16.874 16.4531 16.6875 16.4531H7.31251C7.12603 16.4531 6.94718 16.379 6.81532 16.2472C6.68346 16.1153 6.60938 15.9365 6.60938 15.75C6.60938 15.5635 6.68346 15.3847 6.81532 15.2528C6.94718 15.121 7.12603 15.0469 7.31251 15.0469H16.6875C16.874 15.0469 17.0528 15.121 17.1847 15.2528C17.3166 15.3847 17.3906 15.5635 17.3906 15.75ZM6.60938 9.65625C6.60938 9.42447 6.67811 9.1979 6.80688 9.00519C6.93564 8.81248 7.11867 8.66228 7.3328 8.57358C7.54693 8.48488 7.78256 8.46167 8.00988 8.50689C8.2372 8.55211 8.44601 8.66372 8.6099 8.82761C8.77379 8.9915 8.8854 9.20031 8.93061 9.42763C8.97583 9.65495 8.95262 9.89058 8.86393 10.1047C8.77523 10.3188 8.62503 10.5019 8.43231 10.6306C8.2396 10.7594 8.01303 10.8281 7.78126 10.8281C7.47045 10.8281 7.17238 10.7047 6.95261 10.4849C6.73285 10.2651 6.60938 9.96705 6.60938 9.65625ZM17.3906 9.65625C17.3906 9.88803 17.3219 10.1146 17.1931 10.3073C17.0644 10.5 16.8813 10.6502 16.6672 10.7389C16.4531 10.8276 16.2175 10.8508 15.9901 10.8056C15.7628 10.7604 15.554 10.6488 15.3901 10.4849C15.2262 10.321 15.1146 10.1122 15.0694 9.88487C15.0242 9.65755 15.0474 9.42192 15.1361 9.20779C15.2248 8.99366 15.375 8.81064 15.5677 8.68187C15.7604 8.5531 15.987 8.48438 16.2188 8.48438C16.5296 8.48438 16.8276 8.60784 17.0474 8.82761C17.2672 9.04738 17.3906 9.34545 17.3906 9.65625Z" fill="#B62028"/>
</svg>
