<svg width="25" height="5" viewBox="0 0 25 5" fill="none" xmlns="http://www.w3.org/2000/svg">
<path d="M2.5 4H2.136L0.672 1.78V4H0.308V1.208H0.672L2.136 3.424V1.208H2.5V4ZM4.0765 4.036C3.87117 4.036 3.6845 3.98933 3.5165 3.896C3.35117 3.80267 3.2205 3.67067 3.1245 3.5C3.03117 3.32667 2.9845 3.12667 2.9845 2.9C2.9845 2.676 3.0325 2.47867 3.1285 2.308C3.22717 2.13467 3.3605 2.00267 3.5285 1.912C3.6965 1.81867 3.8845 1.772 4.0925 1.772C4.3005 1.772 4.4885 1.81867 4.6565 1.912C4.8245 2.00267 4.9565 2.13333 5.0525 2.304C5.15117 2.47467 5.2005 2.67333 5.2005 2.9C5.2005 3.12667 5.14983 3.32667 5.0485 3.5C4.94983 3.67067 4.81517 3.80267 4.6445 3.896C4.47383 3.98933 4.2845 4.036 4.0765 4.036ZM4.0765 3.716C4.20717 3.716 4.32983 3.68533 4.4445 3.624C4.55917 3.56267 4.65117 3.47067 4.7205 3.348C4.7925 3.22533 4.8285 3.076 4.8285 2.9C4.8285 2.724 4.79383 2.57467 4.7245 2.452C4.65517 2.32933 4.5645 2.23867 4.4525 2.18C4.3405 2.11867 4.21917 2.088 4.0885 2.088C3.95517 2.088 3.8325 2.11867 3.7205 2.18C3.61117 2.23867 3.52317 2.32933 3.4565 2.452C3.38983 2.57467 3.3565 2.724 3.3565 2.9C3.3565 3.07867 3.3885 3.22933 3.4525 3.352C3.51917 3.47467 3.60717 3.56667 3.7165 3.628C3.82583 3.68667 3.94583 3.716 4.0765 3.716ZM6.12309 2.108V3.4C6.12309 3.50667 6.14576 3.58267 6.19109 3.628C6.23643 3.67067 6.31509 3.692 6.42709 3.692H6.69509V4H6.36709C6.16443 4 6.01243 3.95333 5.91109 3.86C5.80976 3.76667 5.75909 3.61333 5.75909 3.4V2.108H5.47509V1.808H5.75909V1.256H6.12309V1.808H6.69509V2.108H6.12309ZM9.08653 4.028C8.90253 4.028 8.7372 3.996 8.59053 3.932C8.44653 3.86533 8.3332 3.77467 8.25053 3.66C8.16786 3.54267 8.1252 3.408 8.12253 3.256H8.51053C8.52386 3.38667 8.5772 3.49733 8.67053 3.588C8.76653 3.676 8.9052 3.72 9.08653 3.72C9.25986 3.72 9.39586 3.67733 9.49453 3.592C9.59586 3.504 9.64653 3.392 9.64653 3.256C9.64653 3.14933 9.6172 3.06267 9.55853 2.996C9.49986 2.92933 9.42653 2.87867 9.33853 2.844C9.25053 2.80933 9.13186 2.772 8.98253 2.732C8.79853 2.684 8.65053 2.636 8.53853 2.588C8.4292 2.54 8.33453 2.46533 8.25453 2.364C8.1772 2.26 8.13853 2.12133 8.13853 1.948C8.13853 1.796 8.1772 1.66133 8.25453 1.544C8.33186 1.42667 8.43986 1.336 8.57853 1.272C8.71986 1.208 8.8812 1.176 9.06253 1.176C9.32386 1.176 9.5372 1.24133 9.70253 1.372C9.87053 1.50267 9.9652 1.676 9.98653 1.892H9.58653C9.5732 1.78533 9.5172 1.692 9.41853 1.612C9.31986 1.52933 9.1892 1.488 9.02653 1.488C8.87453 1.488 8.75053 1.528 8.65453 1.608C8.55853 1.68533 8.51053 1.79467 8.51053 1.936C8.51053 2.03733 8.53853 2.12 8.59453 2.184C8.6532 2.248 8.72386 2.29733 8.80653 2.332C8.89186 2.364 9.01053 2.40133 9.16253 2.444C9.34653 2.49467 9.49453 2.54533 9.60653 2.596C9.71853 2.644 9.81453 2.72 9.89453 2.824C9.97453 2.92533 10.0145 3.064 10.0145 3.24C10.0145 3.376 9.97853 3.504 9.90653 3.624C9.83453 3.744 9.72786 3.84133 9.58653 3.916C9.4452 3.99067 9.27853 4.028 9.08653 4.028ZM10.4142 2.896C10.4142 2.672 10.4595 2.476 10.5502 2.308C10.6409 2.13733 10.7649 2.00533 10.9222 1.912C11.0822 1.81867 11.2595 1.772 11.4542 1.772C11.6462 1.772 11.8129 1.81333 11.9542 1.896C12.0955 1.97867 12.2009 2.08267 12.2702 2.208V1.808H12.6382V4H12.2702V3.592C12.1982 3.72 12.0902 3.82667 11.9462 3.912C11.8049 3.99467 11.6395 4.036 11.4502 4.036C11.2555 4.036 11.0795 3.988 10.9222 3.892C10.7649 3.796 10.6409 3.66133 10.5502 3.488C10.4595 3.31467 10.4142 3.11733 10.4142 2.896ZM12.2702 2.9C12.2702 2.73467 12.2369 2.59067 12.1702 2.468C12.1035 2.34533 12.0129 2.252 11.8982 2.188C11.7862 2.12133 11.6622 2.088 11.5262 2.088C11.3902 2.088 11.2662 2.12 11.1542 2.184C11.0422 2.248 10.9529 2.34133 10.8862 2.464C10.8195 2.58667 10.7862 2.73067 10.7862 2.896C10.7862 3.064 10.8195 3.21067 10.8862 3.336C10.9529 3.45867 11.0422 3.55333 11.1542 3.62C11.2662 3.684 11.3902 3.716 11.5262 3.716C11.6622 3.716 11.7862 3.684 11.8982 3.62C12.0129 3.55333 12.1035 3.45867 12.1702 3.336C12.2369 3.21067 12.2702 3.06533 12.2702 2.9ZM13.6973 2.108V3.4C13.6973 3.50667 13.72 3.58267 13.7653 3.628C13.8106 3.67067 13.8893 3.692 14.0013 3.692H14.2693V4H13.9413C13.7386 4 13.5866 3.95333 13.4853 3.86C13.384 3.76667 13.3333 3.61333 13.3333 3.4V2.108H13.0493V1.808H13.3333V1.256H13.6973V1.808H14.2693V2.108H13.6973ZM14.8983 1.452C14.829 1.452 14.7703 1.428 14.7223 1.38C14.6743 1.332 14.6503 1.27333 14.6503 1.204C14.6503 1.13467 14.6743 1.076 14.7223 1.028C14.7703 0.98 14.829 0.956 14.8983 0.956C14.965 0.956 15.021 0.98 15.0663 1.028C15.1143 1.076 15.1383 1.13467 15.1383 1.204C15.1383 1.27333 15.1143 1.332 15.0663 1.38C15.021 1.428 14.965 1.452 14.8983 1.452ZM15.0743 1.808V4H14.7103V1.808H15.0743ZM16.4707 4.036C16.3027 4.036 16.1521 4.008 16.0187 3.952C15.8854 3.89333 15.7801 3.81333 15.7027 3.712C15.6254 3.608 15.5827 3.48933 15.5747 3.356H15.9507C15.9614 3.46533 16.0121 3.55467 16.1027 3.624C16.1961 3.69333 16.3174 3.728 16.4667 3.728C16.6054 3.728 16.7147 3.69733 16.7947 3.636C16.8747 3.57467 16.9147 3.49733 16.9147 3.404C16.9147 3.308 16.8721 3.23733 16.7867 3.192C16.7014 3.144 16.5694 3.09733 16.3907 3.052C16.2281 3.00933 16.0947 2.96667 15.9907 2.924C15.8894 2.87867 15.8014 2.81333 15.7267 2.728C15.6547 2.64 15.6187 2.52533 15.6187 2.384C15.6187 2.272 15.6521 2.16933 15.7187 2.076C15.7854 1.98267 15.8801 1.90933 16.0027 1.856C16.1254 1.8 16.2654 1.772 16.4227 1.772C16.6654 1.772 16.8614 1.83333 17.0107 1.956C17.1601 2.07867 17.2401 2.24667 17.2507 2.46H16.8867C16.8787 2.34533 16.8321 2.25333 16.7467 2.184C16.6641 2.11467 16.5521 2.08 16.4107 2.08C16.2801 2.08 16.1761 2.108 16.0987 2.164C16.0214 2.22 15.9827 2.29333 15.9827 2.384C15.9827 2.456 16.0054 2.516 16.0507 2.564C16.0987 2.60933 16.1574 2.64667 16.2267 2.676C16.2987 2.70267 16.3974 2.73333 16.5227 2.768C16.6801 2.81067 16.8081 2.85333 16.9067 2.896C17.0054 2.936 17.0894 2.99733 17.1587 3.08C17.2307 3.16267 17.2681 3.27067 17.2707 3.404C17.2707 3.524 17.2374 3.632 17.1707 3.728C17.1041 3.824 17.0094 3.9 16.8867 3.956C16.7667 4.00933 16.6281 4.036 16.4707 4.036ZM18.6766 2.108H18.2166V4H17.8526V2.108H17.5686V1.808H17.8526V1.652C17.8526 1.40667 17.9152 1.228 18.0406 1.116C18.1686 1.00133 18.3726 0.944 18.6526 0.944V1.248C18.4926 1.248 18.3792 1.28 18.3126 1.344C18.2486 1.40533 18.2166 1.508 18.2166 1.652V1.808H18.6766V2.108ZM19.289 1.452C19.2196 1.452 19.161 1.428 19.113 1.38C19.065 1.332 19.041 1.27333 19.041 1.204C19.041 1.13467 19.065 1.076 19.113 1.028C19.161 0.98 19.2196 0.956 19.289 0.956C19.3556 0.956 19.4116 0.98 19.457 1.028C19.505 1.076 19.529 1.13467 19.529 1.204C19.529 1.27333 19.505 1.332 19.457 1.38C19.4116 1.428 19.3556 1.452 19.289 1.452ZM19.465 1.808V4H19.101V1.808H19.465ZM22.0853 2.82C22.0853 2.88933 22.0813 2.96267 22.0733 3.04H20.3213C20.3347 3.256 20.408 3.42533 20.5413 3.548C20.6773 3.668 20.8413 3.728 21.0333 3.728C21.1907 3.728 21.3213 3.692 21.4253 3.62C21.532 3.54533 21.6067 3.44667 21.6493 3.324H22.0413C21.9827 3.53467 21.8653 3.70667 21.6893 3.84C21.5133 3.97067 21.2947 4.036 21.0333 4.036C20.8253 4.036 20.6387 3.98933 20.4733 3.896C20.3107 3.80267 20.1827 3.67067 20.0893 3.5C19.996 3.32667 19.9493 3.12667 19.9493 2.9C19.9493 2.67333 19.9947 2.47467 20.0853 2.304C20.176 2.13333 20.3027 2.00267 20.4653 1.912C20.6307 1.81867 20.82 1.772 21.0333 1.772C21.2413 1.772 21.4253 1.81733 21.5853 1.908C21.7453 1.99867 21.868 2.124 21.9533 2.284C22.0413 2.44133 22.0853 2.62 22.0853 2.82ZM21.7093 2.744C21.7093 2.60533 21.6787 2.48667 21.6173 2.388C21.556 2.28667 21.472 2.21067 21.3653 2.16C21.2613 2.10667 21.1453 2.08 21.0173 2.08C20.8333 2.08 20.676 2.13867 20.5453 2.256C20.4173 2.37333 20.344 2.536 20.3253 2.744H21.7093ZM22.4298 2.896C22.4298 2.672 22.4751 2.476 22.5658 2.308C22.6565 2.13733 22.7805 2.00533 22.9378 1.912C23.0978 1.81867 23.2765 1.772 23.4738 1.772C23.6445 1.772 23.8031 1.812 23.9498 1.892C24.0965 1.96933 24.2085 2.072 24.2858 2.2V1.04H24.6538V4H24.2858V3.588C24.2138 3.71867 24.1071 3.82667 23.9658 3.912C23.8245 3.99467 23.6591 4.036 23.4698 4.036C23.2751 4.036 23.0978 3.988 22.9378 3.892C22.7805 3.796 22.6565 3.66133 22.5658 3.488C22.4751 3.31467 22.4298 3.11733 22.4298 2.896ZM24.2858 2.9C24.2858 2.73467 24.2525 2.59067 24.1858 2.468C24.1191 2.34533 24.0285 2.252 23.9138 2.188C23.8018 2.12133 23.6778 2.088 23.5418 2.088C23.4058 2.088 23.2818 2.12 23.1698 2.184C23.0578 2.248 22.9685 2.34133 22.9018 2.464C22.8351 2.58667 22.8018 2.73067 22.8018 2.896C22.8018 3.064 22.8351 3.21067 22.9018 3.336C22.9685 3.45867 23.0578 3.55333 23.1698 3.62C23.2818 3.684 23.4058 3.716 23.5418 3.716C23.6778 3.716 23.8018 3.684 23.9138 3.62C24.0285 3.55333 24.1191 3.45867 24.1858 3.336C24.2525 3.21067 24.2858 3.06533 24.2858 2.9Z" fill="black"/>
</svg>
