<svg width="24" height="24" viewBox="0 0 24 24" fill="none" xmlns="http://www.w3.org/2000/svg">
<path d="M17.2957 15.1641C16.1332 17.175 14.2031 18.3281 12 18.3281C9.79688 18.3281 7.8668 17.175 6.7043 15.1641C6.62024 15.0034 6.60152 14.8164 6.65205 14.6422C6.70258 14.4681 6.81845 14.3202 6.97546 14.2294C7.13246 14.1386 7.31847 14.1121 7.49461 14.1552C7.67076 14.1984 7.82342 14.3079 7.92071 14.4609C8.83946 16.0477 10.2879 16.9219 12 16.9219C13.7121 16.9219 15.1641 16.0477 16.0793 14.4609C16.1233 14.3769 16.1838 14.3026 16.2572 14.2426C16.3306 14.1826 16.4153 14.138 16.5064 14.1116C16.5975 14.0851 16.693 14.0774 16.7871 14.0889C16.8813 14.1003 16.9721 14.1307 17.0542 14.1781C17.1363 14.2256 17.208 14.2891 17.2649 14.365C17.3217 14.4409 17.3627 14.5275 17.3853 14.6196C17.4078 14.7117 17.4115 14.8074 17.3961 14.901C17.3807 14.9945 17.3466 15.084 17.2957 15.1641ZM23.9531 12C23.9531 14.3641 23.2521 16.6751 21.9387 18.6408C20.6252 20.6065 18.7584 22.1385 16.5743 23.0432C14.3901 23.948 11.9867 24.1847 9.66807 23.7234C7.34939 23.2622 5.21954 22.1238 3.54787 20.4521C1.87619 18.7805 0.73777 16.6506 0.276556 14.3319C-0.184658 12.0133 0.0520539 9.60989 0.956758 7.42574C1.86146 5.24159 3.39352 3.37477 5.3592 2.06134C7.32489 0.747913 9.6359 0.046875 12 0.046875C15.169 0.0505967 18.2072 1.31114 20.448 3.55198C22.6889 5.79281 23.9494 8.83098 23.9531 12ZM22.5469 12C22.5469 9.91403 21.9283 7.8749 20.7694 6.14047C19.6105 4.40605 17.9633 3.05423 16.0361 2.25596C14.1089 1.45769 11.9883 1.24883 9.94241 1.65578C7.89652 2.06273 6.01725 3.06723 4.54224 4.54223C3.06723 6.01724 2.06274 7.89651 1.65579 9.94241C1.24883 11.9883 1.4577 14.1089 2.25596 16.0361C3.05423 17.9633 4.40605 19.6105 6.14048 20.7694C7.8749 21.9283 9.91403 22.5469 12 22.5469C14.7963 22.5438 17.4771 21.4316 19.4543 19.4543C21.4316 17.4771 22.5438 14.7963 22.5469 12ZM7.78126 10.8281C8.01303 10.8281 8.2396 10.7594 8.43231 10.6306C8.62503 10.5019 8.77523 10.3188 8.86393 10.1047C8.95262 9.89058 8.97583 9.65495 8.93061 9.42763C8.8854 9.20031 8.77379 8.9915 8.6099 8.82761C8.44601 8.66372 8.2372 8.55211 8.00988 8.50689C7.78256 8.46167 7.54693 8.48488 7.3328 8.57358C7.11867 8.66228 6.93564 8.81248 6.80688 9.00519C6.67811 9.1979 6.60938 9.42447 6.60938 9.65625C6.60938 9.96705 6.73285 10.2651 6.95261 10.4849C7.17238 10.7047 7.47045 10.8281 7.78126 10.8281ZM16.2188 8.48438C15.987 8.48438 15.7604 8.5531 15.5677 8.68187C15.375 8.81064 15.2248 8.99366 15.1361 9.20779C15.0474 9.42192 15.0242 9.65755 15.0694 9.88487C15.1146 10.1122 15.2262 10.321 15.3901 10.4849C15.554 10.6488 15.7628 10.7604 15.9901 10.8056C16.2175 10.8508 16.4531 10.8276 16.6672 10.7389C16.8813 10.6502 17.0644 10.5 17.1931 10.3073C17.3219 10.1146 17.3906 9.88803 17.3906 9.65625C17.3906 9.34545 17.2672 9.04738 17.0474 8.82761C16.8276 8.60784 16.5296 8.48438 16.2188 8.48438Z" fill="#B62028"/>
</svg>
